<mxfile host="app.diagrams.net" agent="Mozilla/5.0 (Windows NT 10.0; Win64; x64) AppleWebKit/537.36 (KHTML, like Gecko) Chrome/134.0.0.0 Safari/537.36" version="26.2.5">
  <diagram name="Puslapis-1" id="sN42AFz4P1NUUV4gKvNi">
    <mxGraphModel dx="3967" dy="1365" grid="1" gridSize="10" guides="1" tooltips="1" connect="1" arrows="1" fold="1" page="1" pageScale="1" pageWidth="827" pageHeight="1169" math="0" shadow="0">
      <root>
        <mxCell id="0" />
        <mxCell id="1" parent="0" />
        <mxCell id="zTQN3JKw1aJA6YUJsa-g-11" value="" style="edgeStyle=orthogonalEdgeStyle;rounded=0;orthogonalLoop=1;jettySize=auto;html=1;exitX=0.443;exitY=0.986;exitDx=0;exitDy=0;exitPerimeter=0;strokeWidth=1;fontSize=15;arcSize=12;" parent="1" edge="1">
          <mxGeometry relative="1" as="geometry">
            <mxPoint x="774.5" y="741.26" as="sourcePoint" />
            <mxPoint x="774.5099999999998" y="920" as="targetPoint" />
            <Array as="points">
              <mxPoint x="774.81" y="900" />
              <mxPoint x="774.81" y="900" />
            </Array>
          </mxGeometry>
        </mxCell>
        <mxCell id="zTQN3JKw1aJA6YUJsa-g-12" style="edgeStyle=orthogonalEdgeStyle;rounded=0;orthogonalLoop=1;jettySize=auto;html=1;entryX=0.5;entryY=0;entryDx=0;entryDy=0;strokeWidth=1;fontSize=15;arcSize=12;" parent="1" source="zTQN3JKw1aJA6YUJsa-g-13" edge="1">
          <mxGeometry relative="1" as="geometry">
            <Array as="points">
              <mxPoint x="630" y="1010" />
              <mxPoint x="765" y="1010" />
            </Array>
            <mxPoint x="765" y="1070" as="targetPoint" />
          </mxGeometry>
        </mxCell>
        <mxCell id="zTQN3JKw1aJA6YUJsa-g-13" value="Spawner" style="rounded=1;whiteSpace=wrap;html=1;fillColor=#cdeb8b;strokeColor=#36393d;direction=east;strokeWidth=1;fontSize=15;arcSize=12;" parent="1" vertex="1">
          <mxGeometry x="570" y="920" width="120" height="60" as="geometry" />
        </mxCell>
        <mxCell id="zTQN3JKw1aJA6YUJsa-g-14" value="" style="endArrow=classic;startArrow=none;html=1;rounded=0;startFill=0;strokeWidth=1;fontSize=15;arcSize=12;" parent="1" edge="1">
          <mxGeometry width="50" height="50" relative="1" as="geometry">
            <mxPoint x="724.0178571428573" y="819.0178571428571" as="sourcePoint" />
            <mxPoint x="630" y="920" as="targetPoint" />
          </mxGeometry>
        </mxCell>
        <mxCell id="zTQN3JKw1aJA6YUJsa-g-15" value="" style="edgeStyle=orthogonalEdgeStyle;rounded=0;orthogonalLoop=1;jettySize=auto;html=1;entryX=0.5;entryY=0;entryDx=0;entryDy=0;strokeWidth=1;fontSize=15;arcSize=12;" parent="1" source="zTQN3JKw1aJA6YUJsa-g-16" edge="1">
          <mxGeometry relative="1" as="geometry">
            <mxPoint x="765" y="1070" as="targetPoint" />
            <Array as="points">
              <mxPoint x="765" y="1030" />
              <mxPoint x="765" y="1030" />
            </Array>
          </mxGeometry>
        </mxCell>
        <mxCell id="zTQN3JKw1aJA6YUJsa-g-16" value="Barrier" style="rounded=1;whiteSpace=wrap;html=1;fillColor=#ffff88;strokeColor=#36393d;direction=east;strokeWidth=1;fontSize=15;arcSize=12;" parent="1" vertex="1">
          <mxGeometry x="715" y="920" width="120" height="60" as="geometry" />
        </mxCell>
        <mxCell id="zTQN3JKw1aJA6YUJsa-g-17" value="" style="endArrow=classic;startArrow=none;html=1;rounded=0;startFill=0;entryX=0.5;entryY=0;entryDx=0;entryDy=0;exitX=0.805;exitY=0.972;exitDx=0;exitDy=0;exitPerimeter=0;strokeWidth=1;fontSize=15;arcSize=12;" parent="1" source="zTQN3JKw1aJA6YUJsa-g-29" target="zTQN3JKw1aJA6YUJsa-g-19" edge="1">
          <mxGeometry width="50" height="50" relative="1" as="geometry">
            <mxPoint x="807.5" y="817.5" as="sourcePoint" />
            <mxPoint x="914" y="911" as="targetPoint" />
          </mxGeometry>
        </mxCell>
        <mxCell id="zTQN3JKw1aJA6YUJsa-g-18" style="edgeStyle=orthogonalEdgeStyle;rounded=0;orthogonalLoop=1;jettySize=auto;html=1;entryX=0.5;entryY=0;entryDx=0;entryDy=0;strokeWidth=1;fontSize=15;arcSize=12;" parent="1" source="zTQN3JKw1aJA6YUJsa-g-19" edge="1">
          <mxGeometry relative="1" as="geometry">
            <mxPoint x="765" y="1070" as="targetPoint" />
            <Array as="points">
              <mxPoint x="910" y="1010" />
              <mxPoint x="765" y="1010" />
            </Array>
          </mxGeometry>
        </mxCell>
        <mxCell id="zTQN3JKw1aJA6YUJsa-g-19" value="Archer Tower" style="rounded=1;whiteSpace=wrap;html=1;fillColor=#ffcc99;strokeColor=#36393d;direction=east;strokeWidth=1;fontSize=15;arcSize=12;" parent="1" vertex="1">
          <mxGeometry x="850" y="920" width="120" height="60" as="geometry" />
        </mxCell>
        <mxCell id="zTQN3JKw1aJA6YUJsa-g-29" value="Base component building UI" style="shape=parallelogram;perimeter=parallelogramPerimeter;whiteSpace=wrap;html=1;fixedSize=1;fillColor=#fff2cc;strokeColor=#d6b656;direction=west;strokeWidth=1;fontSize=15;arcSize=12;" parent="1" vertex="1">
          <mxGeometry x="690" y="740" width="170" height="90" as="geometry" />
        </mxCell>
        <mxCell id="zTQN3JKw1aJA6YUJsa-g-31" style="edgeStyle=orthogonalEdgeStyle;rounded=0;orthogonalLoop=1;jettySize=auto;html=1;entryX=0;entryY=0.5;entryDx=0;entryDy=0;strokeWidth=1;fontSize=15;arcSize=12;" parent="1" target="zTQN3JKw1aJA6YUJsa-g-29" edge="1">
          <mxGeometry relative="1" as="geometry">
            <Array as="points">
              <mxPoint x="1000" y="1100" />
              <mxPoint x="1000" y="785" />
            </Array>
            <mxPoint x="825" y="1100" as="sourcePoint" />
          </mxGeometry>
        </mxCell>
        <mxCell id="3FD4Hq7qZ9W1-yD75ijg-3" value="" style="edgeStyle=orthogonalEdgeStyle;rounded=0;orthogonalLoop=1;jettySize=auto;html=1;strokeWidth=1;fontSize=15;arcSize=12;" parent="1" source="3FD4Hq7qZ9W1-yD75ijg-1" target="3FD4Hq7qZ9W1-yD75ijg-2" edge="1">
          <mxGeometry relative="1" as="geometry" />
        </mxCell>
        <mxCell id="3FD4Hq7qZ9W1-yD75ijg-1" value="&lt;font style=&quot;color: rgb(0, 0, 0);&quot;&gt;Start:&lt;/font&gt;&lt;div&gt;&lt;font style=&quot;color: rgb(0, 0, 0);&quot;&gt;Game Launched&lt;/font&gt;&lt;/div&gt;" style="rounded=1;whiteSpace=wrap;html=1;fillColor=#008a00;strokeColor=#005700;fontColor=#ffffff;strokeWidth=1;fontSize=15;arcSize=12;" parent="1" vertex="1">
          <mxGeometry x="325" y="170" width="120" height="60" as="geometry" />
        </mxCell>
        <mxCell id="3FD4Hq7qZ9W1-yD75ijg-7" value="" style="edgeStyle=orthogonalEdgeStyle;rounded=0;orthogonalLoop=1;jettySize=auto;html=1;strokeWidth=1;fontSize=15;arcSize=12;" parent="1" source="3FD4Hq7qZ9W1-yD75ijg-2" target="3FD4Hq7qZ9W1-yD75ijg-5" edge="1">
          <mxGeometry relative="1" as="geometry">
            <Array as="points">
              <mxPoint x="385" y="410" />
              <mxPoint x="385" y="410" />
            </Array>
          </mxGeometry>
        </mxCell>
        <mxCell id="3FD4Hq7qZ9W1-yD75ijg-12" style="edgeStyle=orthogonalEdgeStyle;rounded=0;orthogonalLoop=1;jettySize=auto;html=1;exitX=1;exitY=1;exitDx=0;exitDy=0;entryX=0.5;entryY=0;entryDx=0;entryDy=0;strokeWidth=1;fontSize=15;arcSize=12;" parent="1" source="3FD4Hq7qZ9W1-yD75ijg-2" target="3FD4Hq7qZ9W1-yD75ijg-6" edge="1">
          <mxGeometry relative="1" as="geometry">
            <mxPoint x="414" y="227.5" as="sourcePoint" />
            <mxPoint x="561.5" y="300" as="targetPoint" />
          </mxGeometry>
        </mxCell>
        <mxCell id="3FD4Hq7qZ9W1-yD75ijg-2" value="Game difficulty selection" style="rhombus;whiteSpace=wrap;html=1;fillColor=#f8cecc;strokeColor=#b85450;strokeWidth=1;fontSize=15;arcSize=12;" parent="1" vertex="1">
          <mxGeometry x="320" y="260" width="130" height="130" as="geometry" />
        </mxCell>
        <mxCell id="3FD4Hq7qZ9W1-yD75ijg-21" style="edgeStyle=orthogonalEdgeStyle;rounded=0;orthogonalLoop=1;jettySize=auto;html=1;entryX=0.25;entryY=0;entryDx=0;entryDy=0;strokeWidth=1;fontSize=15;arcSize=12;exitX=0.5;exitY=1;exitDx=0;exitDy=0;" parent="1" source="3FD4Hq7qZ9W1-yD75ijg-4" target="3FD4Hq7qZ9W1-yD75ijg-16" edge="1">
          <mxGeometry relative="1" as="geometry">
            <Array as="points">
              <mxPoint x="210" y="500" />
              <mxPoint x="360" y="500" />
            </Array>
          </mxGeometry>
        </mxCell>
        <mxCell id="3FD4Hq7qZ9W1-yD75ijg-4" value="Easy" style="rounded=1;whiteSpace=wrap;html=1;fillColor=#dae8fc;strokeColor=#6c8ebf;strokeWidth=1;fontSize=15;arcSize=12;" parent="1" vertex="1">
          <mxGeometry x="150" y="430" width="120" height="60" as="geometry" />
        </mxCell>
        <mxCell id="3FD4Hq7qZ9W1-yD75ijg-22" value="" style="edgeStyle=orthogonalEdgeStyle;rounded=0;orthogonalLoop=1;jettySize=auto;html=1;strokeWidth=1;fontSize=15;arcSize=12;" parent="1" source="3FD4Hq7qZ9W1-yD75ijg-5" target="3FD4Hq7qZ9W1-yD75ijg-16" edge="1">
          <mxGeometry relative="1" as="geometry" />
        </mxCell>
        <mxCell id="3FD4Hq7qZ9W1-yD75ijg-5" value="Medium" style="rounded=1;whiteSpace=wrap;html=1;fillColor=#dae8fc;strokeColor=#6c8ebf;strokeWidth=1;fontSize=15;arcSize=12;" parent="1" vertex="1">
          <mxGeometry x="330" y="420" width="120" height="60" as="geometry" />
        </mxCell>
        <mxCell id="3FD4Hq7qZ9W1-yD75ijg-20" style="edgeStyle=orthogonalEdgeStyle;rounded=0;orthogonalLoop=1;jettySize=auto;html=1;entryX=0.75;entryY=0;entryDx=0;entryDy=0;strokeWidth=1;fontSize=15;arcSize=12;exitX=0.5;exitY=1;exitDx=0;exitDy=0;" parent="1" source="3FD4Hq7qZ9W1-yD75ijg-6" target="3FD4Hq7qZ9W1-yD75ijg-16" edge="1">
          <mxGeometry relative="1" as="geometry">
            <Array as="points">
              <mxPoint x="550" y="500" />
              <mxPoint x="420" y="500" />
            </Array>
            <mxPoint x="540" y="440" as="sourcePoint" />
          </mxGeometry>
        </mxCell>
        <mxCell id="3FD4Hq7qZ9W1-yD75ijg-6" value="Hard" style="rounded=1;whiteSpace=wrap;html=1;fillColor=#dae8fc;strokeColor=#6c8ebf;strokeWidth=1;fontSize=15;arcSize=12;" parent="1" vertex="1">
          <mxGeometry x="490" y="430" width="120" height="60" as="geometry" />
        </mxCell>
        <mxCell id="3FD4Hq7qZ9W1-yD75ijg-15" style="edgeStyle=orthogonalEdgeStyle;rounded=0;orthogonalLoop=1;jettySize=auto;html=1;exitX=0;exitY=1;exitDx=0;exitDy=0;entryX=0.417;entryY=0.017;entryDx=0;entryDy=0;entryPerimeter=0;strokeWidth=1;fontSize=15;arcSize=12;" parent="1" source="3FD4Hq7qZ9W1-yD75ijg-2" target="3FD4Hq7qZ9W1-yD75ijg-4" edge="1">
          <mxGeometry relative="1" as="geometry" />
        </mxCell>
        <mxCell id="3FD4Hq7qZ9W1-yD75ijg-24" value="" style="edgeStyle=orthogonalEdgeStyle;rounded=0;orthogonalLoop=1;jettySize=auto;html=1;strokeWidth=1;fontSize=15;arcSize=12;" parent="1" source="3FD4Hq7qZ9W1-yD75ijg-16" target="3FD4Hq7qZ9W1-yD75ijg-23" edge="1">
          <mxGeometry relative="1" as="geometry" />
        </mxCell>
        <mxCell id="3FD4Hq7qZ9W1-yD75ijg-16" value="Game starts" style="rounded=1;whiteSpace=wrap;html=1;fillColor=#dae8fc;strokeColor=#6c8ebf;strokeWidth=1;fontSize=15;arcSize=12;" parent="1" vertex="1">
          <mxGeometry x="330" y="520" width="120" height="60" as="geometry" />
        </mxCell>
        <mxCell id="3FD4Hq7qZ9W1-yD75ijg-27" value="" style="edgeStyle=orthogonalEdgeStyle;rounded=0;orthogonalLoop=1;jettySize=auto;html=1;strokeWidth=1;fontSize=15;arcSize=12;" parent="1" source="3FD4Hq7qZ9W1-yD75ijg-23" target="3FD4Hq7qZ9W1-yD75ijg-26" edge="1">
          <mxGeometry relative="1" as="geometry" />
        </mxCell>
        <mxCell id="3FD4Hq7qZ9W1-yD75ijg-23" value="Loaded map, resources, player and enemy starter bases" style="rounded=1;whiteSpace=wrap;html=1;fillColor=#dae8fc;strokeColor=#6c8ebf;strokeWidth=1;fontSize=15;arcSize=12;" parent="1" vertex="1">
          <mxGeometry x="330" y="610" width="120" height="60" as="geometry" />
        </mxCell>
        <mxCell id="zTQN3JKw1aJA6YUJsa-g-4" style="edgeStyle=orthogonalEdgeStyle;rounded=0;orthogonalLoop=1;jettySize=auto;html=1;entryX=1;entryY=0.5;entryDx=0;entryDy=0;startArrow=classic;startFill=1;exitX=0;exitY=0.5;exitDx=0;exitDy=0;strokeWidth=1;fontSize=15;arcSize=12;" parent="1" source="3FD4Hq7qZ9W1-yD75ijg-26" target="zTQN3JKw1aJA6YUJsa-g-3" edge="1">
          <mxGeometry relative="1" as="geometry">
            <mxPoint x="360" y="689.9565217391307" as="sourcePoint" />
            <mxPoint x="160" y="800" as="targetPoint" />
            <Array as="points">
              <mxPoint x="80" y="730" />
              <mxPoint x="80" y="785" />
            </Array>
          </mxGeometry>
        </mxCell>
        <mxCell id="zTQN3JKw1aJA6YUJsa-g-33" style="edgeStyle=orthogonalEdgeStyle;rounded=0;orthogonalLoop=1;jettySize=auto;html=1;entryX=1;entryY=0.5;entryDx=0;entryDy=0;startArrow=classic;startFill=1;exitX=1;exitY=0.5;exitDx=0;exitDy=0;strokeWidth=1;fontSize=15;arcSize=12;" parent="1" source="3FD4Hq7qZ9W1-yD75ijg-26" target="zTQN3JKw1aJA6YUJsa-g-29" edge="1">
          <mxGeometry relative="1" as="geometry">
            <mxPoint x="270" y="690.090909090909" as="sourcePoint" />
            <Array as="points">
              <mxPoint x="650" y="730" />
              <mxPoint x="650" y="785" />
            </Array>
          </mxGeometry>
        </mxCell>
        <mxCell id="zTQN3JKw1aJA6YUJsa-g-43" style="edgeStyle=orthogonalEdgeStyle;rounded=0;orthogonalLoop=1;jettySize=auto;html=1;strokeWidth=1;fontSize=15;arcSize=12;" parent="1" source="3FD4Hq7qZ9W1-yD75ijg-26" target="zTQN3JKw1aJA6YUJsa-g-40" edge="1">
          <mxGeometry relative="1" as="geometry" />
        </mxCell>
        <mxCell id="3FD4Hq7qZ9W1-yD75ijg-26" value="Resources appear" style="rounded=1;whiteSpace=wrap;html=1;fillColor=#dae8fc;strokeColor=#6c8ebf;strokeWidth=1;fontSize=15;arcSize=12;" parent="1" vertex="1">
          <mxGeometry x="330" y="700" width="120" height="60" as="geometry" />
        </mxCell>
        <mxCell id="3FD4Hq7qZ9W1-yD75ijg-39" value="" style="edgeStyle=orthogonalEdgeStyle;rounded=0;orthogonalLoop=1;jettySize=auto;html=1;exitX=0.443;exitY=0.986;exitDx=0;exitDy=0;exitPerimeter=0;strokeWidth=1;fontSize=15;arcSize=12;" parent="1" source="zTQN3JKw1aJA6YUJsa-g-3" target="3FD4Hq7qZ9W1-yD75ijg-38" edge="1">
          <mxGeometry relative="1" as="geometry">
            <mxPoint x="-35" y="860" as="sourcePoint" />
          </mxGeometry>
        </mxCell>
        <mxCell id="zTQN3JKw1aJA6YUJsa-g-6" style="edgeStyle=orthogonalEdgeStyle;rounded=0;orthogonalLoop=1;jettySize=auto;html=1;entryX=0.5;entryY=0;entryDx=0;entryDy=0;strokeWidth=1;fontSize=15;arcSize=12;" parent="1" source="3FD4Hq7qZ9W1-yD75ijg-35" target="zTQN3JKw1aJA6YUJsa-g-5" edge="1">
          <mxGeometry relative="1" as="geometry">
            <Array as="points">
              <mxPoint x="-170" y="1010" />
              <mxPoint x="-35" y="1010" />
            </Array>
          </mxGeometry>
        </mxCell>
        <mxCell id="3FD4Hq7qZ9W1-yD75ijg-35" value="Swordsman" style="rounded=1;whiteSpace=wrap;html=1;fillColor=#647687;strokeColor=#314354;fontColor=#ffffff;strokeWidth=1;fontSize=15;arcSize=12;" parent="1" vertex="1">
          <mxGeometry x="-230" y="920" width="120" height="60" as="geometry" />
        </mxCell>
        <mxCell id="3FD4Hq7qZ9W1-yD75ijg-37" value="" style="endArrow=classic;startArrow=none;html=1;rounded=0;startFill=0;strokeWidth=1;fontSize=15;arcSize=12;" parent="1" edge="1">
          <mxGeometry width="50" height="50" relative="1" as="geometry">
            <mxPoint x="-75.98214285714266" y="819.0178571428571" as="sourcePoint" />
            <mxPoint x="-170" y="920" as="targetPoint" />
          </mxGeometry>
        </mxCell>
        <mxCell id="3FD4Hq7qZ9W1-yD75ijg-46" value="" style="edgeStyle=orthogonalEdgeStyle;rounded=0;orthogonalLoop=1;jettySize=auto;html=1;entryX=0.5;entryY=0;entryDx=0;entryDy=0;strokeWidth=1;fontSize=15;arcSize=12;" parent="1" source="3FD4Hq7qZ9W1-yD75ijg-38" target="zTQN3JKw1aJA6YUJsa-g-5" edge="1">
          <mxGeometry relative="1" as="geometry">
            <mxPoint x="-35" y="1030" as="targetPoint" />
            <Array as="points">
              <mxPoint x="-35" y="1030" />
              <mxPoint x="-35" y="1030" />
            </Array>
          </mxGeometry>
        </mxCell>
        <mxCell id="3FD4Hq7qZ9W1-yD75ijg-38" value="Long Range" style="rounded=1;whiteSpace=wrap;html=1;fillColor=#0050ef;strokeColor=#001DBC;fontColor=#ffffff;strokeWidth=1;fontSize=15;arcSize=12;" parent="1" vertex="1">
          <mxGeometry x="-95" y="920" width="120" height="60" as="geometry" />
        </mxCell>
        <mxCell id="3FD4Hq7qZ9W1-yD75ijg-40" value="" style="endArrow=classic;startArrow=none;html=1;rounded=0;startFill=0;entryX=0.5;entryY=0;entryDx=0;entryDy=0;exitX=0.805;exitY=0.972;exitDx=0;exitDy=0;exitPerimeter=0;strokeWidth=1;fontSize=15;arcSize=12;" parent="1" source="zTQN3JKw1aJA6YUJsa-g-3" target="3FD4Hq7qZ9W1-yD75ijg-41" edge="1">
          <mxGeometry width="50" height="50" relative="1" as="geometry">
            <mxPoint x="7.5" y="817.5" as="sourcePoint" />
            <mxPoint x="114" y="911" as="targetPoint" />
          </mxGeometry>
        </mxCell>
        <mxCell id="3FD4Hq7qZ9W1-yD75ijg-47" style="edgeStyle=orthogonalEdgeStyle;rounded=0;orthogonalLoop=1;jettySize=auto;html=1;entryX=0.5;entryY=0;entryDx=0;entryDy=0;strokeWidth=1;fontSize=15;arcSize=12;" parent="1" source="3FD4Hq7qZ9W1-yD75ijg-41" target="zTQN3JKw1aJA6YUJsa-g-5" edge="1">
          <mxGeometry relative="1" as="geometry">
            <mxPoint x="-35" y="1030" as="targetPoint" />
            <Array as="points">
              <mxPoint x="110" y="1010" />
              <mxPoint x="-35" y="1010" />
            </Array>
          </mxGeometry>
        </mxCell>
        <mxCell id="3FD4Hq7qZ9W1-yD75ijg-41" value="Tank Soldier" style="rounded=1;whiteSpace=wrap;html=1;fillColor=#1ba1e2;strokeColor=#006EAF;fontColor=#ffffff;strokeWidth=1;fontSize=15;arcSize=12;" parent="1" vertex="1">
          <mxGeometry x="50" y="920" width="120" height="60" as="geometry" />
        </mxCell>
        <mxCell id="3FD4Hq7qZ9W1-yD75ijg-55" value="" style="edgeStyle=orthogonalEdgeStyle;rounded=0;orthogonalLoop=1;jettySize=auto;html=1;exitX=0.449;exitY=1.022;exitDx=0;exitDy=0;exitPerimeter=0;strokeWidth=1;fontSize=15;arcSize=12;" parent="1" source="zTQN3JKw1aJA6YUJsa-g-5" target="3FD4Hq7qZ9W1-yD75ijg-51" edge="1">
          <mxGeometry relative="1" as="geometry">
            <mxPoint x="-35" y="1200" as="sourcePoint" />
            <Array as="points">
              <mxPoint x="-40" y="1131" />
            </Array>
          </mxGeometry>
        </mxCell>
        <mxCell id="zTQN3JKw1aJA6YUJsa-g-9" style="edgeStyle=orthogonalEdgeStyle;rounded=0;orthogonalLoop=1;jettySize=auto;html=1;entryX=0.5;entryY=0;entryDx=0;entryDy=0;strokeWidth=1;fontSize=15;arcSize=12;" parent="1" source="3FD4Hq7qZ9W1-yD75ijg-49" target="zTQN3JKw1aJA6YUJsa-g-7" edge="1">
          <mxGeometry relative="1" as="geometry">
            <Array as="points">
              <mxPoint x="-170" y="1350" />
              <mxPoint x="-35" y="1350" />
            </Array>
          </mxGeometry>
        </mxCell>
        <mxCell id="3FD4Hq7qZ9W1-yD75ijg-49" value="Upgraded Swordsman" style="rounded=1;whiteSpace=wrap;html=1;fillColor=#647687;strokeColor=#314354;fontColor=#ffffff;strokeWidth=1;fontSize=15;arcSize=12;" parent="1" vertex="1">
          <mxGeometry x="-230" y="1220" width="120" height="60" as="geometry" />
        </mxCell>
        <mxCell id="3FD4Hq7qZ9W1-yD75ijg-50" value="" style="edgeStyle=orthogonalEdgeStyle;rounded=0;orthogonalLoop=1;jettySize=auto;html=1;entryX=0.5;entryY=0;entryDx=0;entryDy=0;strokeWidth=1;fontSize=15;arcSize=12;" parent="1" source="3FD4Hq7qZ9W1-yD75ijg-51" target="zTQN3JKw1aJA6YUJsa-g-7" edge="1">
          <mxGeometry relative="1" as="geometry">
            <mxPoint x="-35" y="1360" as="targetPoint" />
          </mxGeometry>
        </mxCell>
        <mxCell id="3FD4Hq7qZ9W1-yD75ijg-51" value="Upgraded Long Range" style="rounded=1;whiteSpace=wrap;html=1;fillColor=#0050ef;strokeColor=#001DBC;fontColor=#ffffff;strokeWidth=1;fontSize=15;arcSize=12;" parent="1" vertex="1">
          <mxGeometry x="-95" y="1220" width="120" height="60" as="geometry" />
        </mxCell>
        <mxCell id="zTQN3JKw1aJA6YUJsa-g-10" style="edgeStyle=orthogonalEdgeStyle;rounded=0;orthogonalLoop=1;jettySize=auto;html=1;entryX=0.5;entryY=0;entryDx=0;entryDy=0;strokeWidth=1;fontSize=15;arcSize=12;" parent="1" source="zTQN3JKw1aJA6YUJsa-g-37" target="zTQN3JKw1aJA6YUJsa-g-7" edge="1">
          <mxGeometry relative="1" as="geometry">
            <Array as="points">
              <mxPoint x="-35" y="1380" />
              <mxPoint x="-35" y="1380" />
            </Array>
          </mxGeometry>
        </mxCell>
        <mxCell id="3FD4Hq7qZ9W1-yD75ijg-53" value="&lt;div&gt;Upgraded Tank Soldier&lt;/div&gt;" style="rounded=1;whiteSpace=wrap;html=1;fillColor=#1ba1e2;strokeColor=#006EAF;fontColor=#ffffff;strokeWidth=1;fontSize=15;arcSize=12;" parent="1" vertex="1">
          <mxGeometry x="50" y="1220" width="120" height="60" as="geometry" />
        </mxCell>
        <mxCell id="zTQN3JKw1aJA6YUJsa-g-1" value="" style="endArrow=classic;startArrow=none;html=1;rounded=0;startFill=0;exitX=0.63;exitY=1.022;exitDx=0;exitDy=0;entryX=0.5;entryY=0;entryDx=0;entryDy=0;exitPerimeter=0;strokeWidth=1;fontSize=15;arcSize=12;" parent="1" source="zTQN3JKw1aJA6YUJsa-g-5" target="3FD4Hq7qZ9W1-yD75ijg-53" edge="1">
          <mxGeometry width="50" height="50" relative="1" as="geometry">
            <mxPoint x="7.5" y="1157.5" as="sourcePoint" />
            <mxPoint x="120" y="1250" as="targetPoint" />
          </mxGeometry>
        </mxCell>
        <mxCell id="zTQN3JKw1aJA6YUJsa-g-2" value="" style="endArrow=classic;startArrow=none;html=1;rounded=0;startFill=0;exitX=0.166;exitY=0.979;exitDx=0;exitDy=0;entryX=0.5;entryY=0;entryDx=0;entryDy=0;exitPerimeter=0;strokeWidth=1;fontSize=15;arcSize=12;" parent="1" source="zTQN3JKw1aJA6YUJsa-g-5" target="3FD4Hq7qZ9W1-yD75ijg-49" edge="1">
          <mxGeometry width="50" height="50" relative="1" as="geometry">
            <mxPoint x="-77.5" y="1157.5" as="sourcePoint" />
            <mxPoint x="-199.99999999999955" y="1250" as="targetPoint" />
          </mxGeometry>
        </mxCell>
        <mxCell id="zTQN3JKw1aJA6YUJsa-g-3" value="Troop Crafting UI" style="shape=parallelogram;perimeter=parallelogramPerimeter;whiteSpace=wrap;html=1;fixedSize=1;fillColor=#fff2cc;strokeColor=#d6b656;strokeWidth=1;fontSize=15;arcSize=12;" parent="1" vertex="1">
          <mxGeometry x="-110" y="740" width="170" height="90" as="geometry" />
        </mxCell>
        <mxCell id="zTQN3JKw1aJA6YUJsa-g-5" value="Upgrade troops" style="shape=parallelogram;perimeter=parallelogramPerimeter;whiteSpace=wrap;html=1;fixedSize=1;fillColor=#fff2cc;strokeColor=#d6b656;strokeWidth=1;fontSize=15;arcSize=12;" parent="1" vertex="1">
          <mxGeometry x="-120" y="1070" width="170" height="90" as="geometry" />
        </mxCell>
        <mxCell id="zTQN3JKw1aJA6YUJsa-g-8" style="edgeStyle=orthogonalEdgeStyle;rounded=0;orthogonalLoop=1;jettySize=auto;html=1;entryX=0;entryY=0.5;entryDx=0;entryDy=0;exitX=0;exitY=0.5;exitDx=0;exitDy=0;fontSize=15;arcSize=12;" parent="1" source="zTQN3JKw1aJA6YUJsa-g-7" target="zTQN3JKw1aJA6YUJsa-g-3" edge="1">
          <mxGeometry relative="1" as="geometry">
            <Array as="points">
              <mxPoint x="-260" y="1480" />
              <mxPoint x="-260" y="785" />
            </Array>
          </mxGeometry>
        </mxCell>
        <mxCell id="zTQN3JKw1aJA6YUJsa-g-7" value="Troop UI end" style="rounded=1;whiteSpace=wrap;html=1;fillColor=#dae8fc;strokeColor=#6c8ebf;strokeWidth=1;fontSize=15;arcSize=12;" parent="1" vertex="1">
          <mxGeometry x="-95" y="1450" width="120" height="60" as="geometry" />
        </mxCell>
        <mxCell id="zTQN3JKw1aJA6YUJsa-g-38" value="" style="edgeStyle=orthogonalEdgeStyle;rounded=0;orthogonalLoop=1;jettySize=auto;html=1;startArrow=none;startFill=0;strokeWidth=1;fontSize=15;arcSize=12;" parent="1" target="zTQN3JKw1aJA6YUJsa-g-37" edge="1">
          <mxGeometry relative="1" as="geometry">
            <mxPoint x="-35" y="1310" as="sourcePoint" />
          </mxGeometry>
        </mxCell>
        <mxCell id="zTQN3JKw1aJA6YUJsa-g-39" value="Base UI end" style="rounded=1;whiteSpace=wrap;html=1;fillColor=#dae8fc;strokeColor=#6c8ebf;strokeWidth=1;fontSize=15;arcSize=12;" parent="1" vertex="1">
          <mxGeometry x="707" y="1070" width="120" height="60" as="geometry" />
        </mxCell>
        <mxCell id="zTQN3JKw1aJA6YUJsa-g-41" style="edgeStyle=orthogonalEdgeStyle;rounded=0;orthogonalLoop=1;jettySize=auto;html=1;entryX=1;entryY=0.25;entryDx=0;entryDy=0;startArrow=classic;startFill=1;exitX=1;exitY=0.5;exitDx=0;exitDy=0;strokeWidth=1;fontSize=15;arcSize=12;" parent="1" source="zTQN3JKw1aJA6YUJsa-g-40" target="zTQN3JKw1aJA6YUJsa-g-29" edge="1">
          <mxGeometry relative="1" as="geometry">
            <Array as="points">
              <mxPoint x="480" y="830" />
              <mxPoint x="480" y="806" />
            </Array>
          </mxGeometry>
        </mxCell>
        <mxCell id="zTQN3JKw1aJA6YUJsa-g-42" style="edgeStyle=orthogonalEdgeStyle;rounded=0;orthogonalLoop=1;jettySize=auto;html=1;entryX=1;entryY=0.75;entryDx=0;entryDy=0;startArrow=classic;startFill=1;exitX=0;exitY=0.75;exitDx=0;exitDy=0;strokeWidth=1;fontSize=15;arcSize=12;" parent="1" source="zTQN3JKw1aJA6YUJsa-g-40" target="zTQN3JKw1aJA6YUJsa-g-3" edge="1">
          <mxGeometry relative="1" as="geometry">
            <Array as="points">
              <mxPoint x="310" y="845" />
              <mxPoint x="310" y="804" />
            </Array>
          </mxGeometry>
        </mxCell>
        <mxCell id="zTQN3JKw1aJA6YUJsa-g-45" value="" style="edgeStyle=orthogonalEdgeStyle;rounded=0;orthogonalLoop=1;jettySize=auto;html=1;strokeWidth=1;fontSize=15;arcSize=12;" parent="1" source="zTQN3JKw1aJA6YUJsa-g-40" target="zTQN3JKw1aJA6YUJsa-g-44" edge="1">
          <mxGeometry relative="1" as="geometry" />
        </mxCell>
        <mxCell id="zTQN3JKw1aJA6YUJsa-g-40" value="Build base" style="rounded=1;whiteSpace=wrap;html=1;fillColor=#dae8fc;strokeColor=#6c8ebf;strokeWidth=1;fontSize=15;arcSize=12;" parent="1" vertex="1">
          <mxGeometry x="330" y="800" width="120" height="60" as="geometry" />
        </mxCell>
        <mxCell id="zTQN3JKw1aJA6YUJsa-g-44" value="Base health checker" style="rhombus;whiteSpace=wrap;html=1;fillColor=#f5f5f5;strokeColor=#666666;fontColor=#333333;strokeWidth=1;fontSize=15;arcSize=12;" parent="1" vertex="1">
          <mxGeometry x="300" y="880" width="180" height="150" as="geometry" />
        </mxCell>
        <mxCell id="zTQN3JKw1aJA6YUJsa-g-55" value="" style="edgeStyle=orthogonalEdgeStyle;rounded=0;orthogonalLoop=1;jettySize=auto;html=1;strokeWidth=1;fontSize=15;arcSize=12;" parent="1" source="zTQN3JKw1aJA6YUJsa-g-51" target="zTQN3JKw1aJA6YUJsa-g-54" edge="1">
          <mxGeometry relative="1" as="geometry" />
        </mxCell>
        <mxCell id="zTQN3JKw1aJA6YUJsa-g-51" value="If player base health is 0" style="rhombus;whiteSpace=wrap;html=1;fillColor=#f8cecc;strokeColor=#b85450;strokeWidth=1;fontSize=15;arcSize=12;" parent="1" vertex="1">
          <mxGeometry x="260" y="1020" width="100" height="140" as="geometry" />
        </mxCell>
        <mxCell id="zTQN3JKw1aJA6YUJsa-g-53" value="" style="endArrow=classic;startArrow=classic;html=1;rounded=0;entryX=0;entryY=1;entryDx=0;entryDy=0;exitX=0.5;exitY=0;exitDx=0;exitDy=0;strokeWidth=1;fontSize=15;arcSize=12;" parent="1" source="zTQN3JKw1aJA6YUJsa-g-51" target="zTQN3JKw1aJA6YUJsa-g-44" edge="1">
          <mxGeometry width="50" height="50" relative="1" as="geometry">
            <mxPoint x="320" y="1060" as="sourcePoint" />
            <mxPoint x="370" y="1010" as="targetPoint" />
          </mxGeometry>
        </mxCell>
        <mxCell id="zTQN3JKw1aJA6YUJsa-g-54" value="End:&lt;div&gt;Game Lost&lt;/div&gt;" style="rounded=1;whiteSpace=wrap;html=1;fillColor=#a20025;fontColor=#ffffff;strokeColor=#6F0000;strokeWidth=1;fontSize=15;arcSize=12;" parent="1" vertex="1">
          <mxGeometry x="250" y="1200" width="120" height="60" as="geometry" />
        </mxCell>
        <mxCell id="zTQN3JKw1aJA6YUJsa-g-59" value="" style="edgeStyle=orthogonalEdgeStyle;rounded=0;orthogonalLoop=1;jettySize=auto;html=1;strokeWidth=1;fontSize=15;arcSize=12;" parent="1" source="zTQN3JKw1aJA6YUJsa-g-56" target="zTQN3JKw1aJA6YUJsa-g-58" edge="1">
          <mxGeometry relative="1" as="geometry" />
        </mxCell>
        <mxCell id="zTQN3JKw1aJA6YUJsa-g-56" value="If all enemy bases are destroyed" style="rhombus;whiteSpace=wrap;html=1;fillColor=#f8cecc;strokeColor=#b85450;strokeWidth=1;fontSize=15;arcSize=12;" parent="1" vertex="1">
          <mxGeometry x="430" y="1020" width="100" height="140" as="geometry" />
        </mxCell>
        <mxCell id="zTQN3JKw1aJA6YUJsa-g-57" value="" style="endArrow=classic;startArrow=classic;html=1;rounded=0;entryX=0.5;entryY=0;entryDx=0;entryDy=0;exitX=0.802;exitY=0.713;exitDx=0;exitDy=0;exitPerimeter=0;strokeWidth=1;fontSize=15;arcSize=12;" parent="1" source="zTQN3JKw1aJA6YUJsa-g-44" target="zTQN3JKw1aJA6YUJsa-g-56" edge="1">
          <mxGeometry width="50" height="50" relative="1" as="geometry">
            <mxPoint x="460" y="1000" as="sourcePoint" />
            <mxPoint x="510" y="1050" as="targetPoint" />
          </mxGeometry>
        </mxCell>
        <mxCell id="zTQN3JKw1aJA6YUJsa-g-58" value="End:&lt;div&gt;Game Won&lt;/div&gt;" style="rounded=1;whiteSpace=wrap;html=1;fillColor=#008a00;fontColor=#ffffff;strokeColor=#005700;strokeWidth=1;fontSize=15;arcSize=12;" parent="1" vertex="1">
          <mxGeometry x="420" y="1200" width="120" height="60" as="geometry" />
        </mxCell>
        <mxCell id="VV1UPDxizB2_N0gYui_o-1" value="" style="edgeStyle=orthogonalEdgeStyle;rounded=0;orthogonalLoop=1;jettySize=auto;html=1;entryX=0.5;entryY=0;entryDx=0;entryDy=0;strokeWidth=1;fontSize=15;arcSize=12;" parent="1" source="3FD4Hq7qZ9W1-yD75ijg-53" target="zTQN3JKw1aJA6YUJsa-g-37" edge="1">
          <mxGeometry relative="1" as="geometry">
            <Array as="points">
              <mxPoint x="120" y="1350" />
              <mxPoint x="-35" y="1350" />
            </Array>
            <mxPoint x="110" y="1280" as="sourcePoint" />
            <mxPoint x="-35" y="1470" as="targetPoint" />
          </mxGeometry>
        </mxCell>
        <mxCell id="zTQN3JKw1aJA6YUJsa-g-37" value="Spawn troops" style="rounded=1;whiteSpace=wrap;html=1;fillColor=#dae8fc;strokeColor=#6c8ebf;strokeWidth=1;fontSize=15;arcSize=12;" parent="1" vertex="1">
          <mxGeometry x="-95" y="1370" width="120" height="60" as="geometry" />
        </mxCell>
      </root>
    </mxGraphModel>
  </diagram>
</mxfile>
